<svg id="Group_1205691" data-name="Group 1205691" xmlns="http://www.w3.org/2000/svg" xmlns:xlink="http://www.w3.org/1999/xlink" width="121.831" height="121.831" viewBox="0 0 121.831 121.831">
  <defs>
    <clipPath id="clip-path">
      <rect id="Rectangle_411081" data-name="Rectangle 411081" width="121.831" height="121.831" transform="translate(0)" fill="#e8bad8" opacity="0.41"/>
    </clipPath>
    <clipPath id="clip-path-2">
      <rect id="Rectangle_411545" data-name="Rectangle 411545" width="87.989" height="83.928" fill="#fff" stroke="#707070" stroke-width="1" opacity="0"/>
    </clipPath>
  </defs>
  <g id="Group_1205688" data-name="Group 1205688">
    <g id="Group_1205666" data-name="Group 1205666">
      <g id="Group_1204015" data-name="Group 1204015" transform="translate(0)">
        <g id="Mask_Group_1099381" data-name="Mask Group 1099381" clip-path="url(#clip-path)">
          <g id="Group_1204014" data-name="Group 1204014" transform="translate(0 6.645)">
            <g id="Group_1204000" data-name="Group 1204000">
              <ellipse id="Ellipse_12722" data-name="Ellipse 12722" cx="30.36" cy="30.36" rx="30.36" ry="30.36" transform="translate(59.885 46.92)" fill="#ffc94a"/>
              <ellipse id="Ellipse_12723" data-name="Ellipse 12723" cx="22.08" cy="22.08" rx="22.08" ry="22.08" fill="#ffc94a"/>
            </g>
          </g>
        </g>
      </g>
    </g>
    <g id="Mask_Group_1099549" data-name="Mask Group 1099549" transform="translate(16.313 19.215)" clip-path="url(#clip-path-2)">
      <g id="signal_6436551" transform="translate(6.715 1.228)">
        <g id="Group_1205684" data-name="Group 1205684" transform="translate(0 0)">
          <g id="Group_1205682" data-name="Group 1205682" transform="translate(0 24.456)">
            <g id="Group_1205679" data-name="Group 1205679">
              <path id="Path_1264425" data-name="Path 1264425" d="M56.235,75.99a4.261,4.261,0,0,1-4.245-3.928,48.316,48.316,0,0,0-3.681-15.025,48.469,48.469,0,0,0-10.417-15.46,48.619,48.619,0,0,0-30.486-14.1,4.261,4.261,0,0,1-3.928-4.245h0a4.262,4.262,0,0,1,4.6-4.246A57.138,57.138,0,0,1,43.914,35.554a56.944,56.944,0,0,1,12.24,18.165,56.778,56.778,0,0,1,4.328,17.669,4.262,4.262,0,0,1-4.247,4.6Z" transform="translate(-3.478 -18.973)" fill="#b1f5d5"/>
            </g>
            <g id="Group_1205680" data-name="Group 1205680" transform="translate(0 17.118)">
              <path id="Path_1264426" data-name="Path 1264426" d="M3.478,35.876a4.267,4.267,0,0,1,4.787-4.227,40.109,40.109,0,0,1,23.6,11.478,39.989,39.989,0,0,1,8.6,12.756A39.846,39.846,0,0,1,43.346,66.73a4.267,4.267,0,0,1-4.227,4.787h0a4.246,4.246,0,0,1-4.226-3.732A31.379,31.379,0,0,0,32.619,59.2,31.507,31.507,0,0,0,25.845,49.15,31.582,31.582,0,0,0,7.21,40.1a4.246,4.246,0,0,1-3.732-4.226Z" transform="translate(-3.478 -31.619)" fill="#b1f5d5"/>
            </g>
            <g id="Group_1205681" data-name="Group 1205681" transform="translate(1.085 34.673)">
              <path id="Path_1264427" data-name="Path 1264427" d="M7.295,52.921a14.657,14.657,0,0,1,9.924,9.96A4.235,4.235,0,0,0,21.3,65.916h0a4.262,4.262,0,0,0,4.086-5.462A23.21,23.21,0,0,0,9.753,44.765a4.261,4.261,0,0,0-5.474,4.083h0A4.233,4.233,0,0,0,7.295,52.921Z" transform="translate(-4.279 -44.587)" fill="#b1f5d5"/>
            </g>
          </g>
          <g id="Group_1205683" data-name="Group 1205683" transform="translate(37.943)">
            <path id="Path_1264428" data-name="Path 1264428" d="M64.5,31.822H35.086a3.572,3.572,0,0,1-3.038-5.451L46.754,2.6a3.572,3.572,0,0,1,6.075,0L67.536,26.371A3.572,3.572,0,0,1,64.5,31.822Z" transform="translate(-31.508 -0.907)" fill="#f7d8a4"/>
          </g>
          <path id="Path_1264429" data-name="Path 1264429" d="M34.636,27.41,50.1,2.419a3.738,3.738,0,0,1,1.174-1.195A3.573,3.573,0,0,0,46.754,2.6L32.048,26.371a3.571,3.571,0,0,0,2.919,5.447A3.738,3.738,0,0,1,34.636,27.41Z" transform="translate(6.436 -0.907)" fill="#f4c67b"/>
        </g>
        <g id="Group_1205687" data-name="Group 1205687" transform="translate(0 0)">
          <g id="Group_1205686" data-name="Group 1205686" transform="translate(0 24.455)">
            <path id="Path_1264430" data-name="Path 1264430" d="M23.361,31.566A48.453,48.453,0,0,1,37.892,41.577a48.465,48.465,0,0,1,10.417,15.46A48.316,48.316,0,0,1,51.99,72.062a4.261,4.261,0,0,0,4.245,3.928h0a4.262,4.262,0,0,0,4.246-4.6,56.775,56.775,0,0,0-4.328-17.669,56.943,56.943,0,0,0-12.24-18.165A57.138,57.138,0,0,0,8.08,18.987a4.262,4.262,0,0,0-4.6,4.246h0a4.261,4.261,0,0,0,3.928,4.245,48.22,48.22,0,0,1,11.061,2.2" transform="translate(-3.478 -18.973)" fill="none" stroke="#000" stroke-linecap="round" stroke-linejoin="round" stroke-miterlimit="10" stroke-width="1.814"/>
            <path id="Path_1264431" data-name="Path 1264431" d="M33.15,60.541a31.32,31.32,0,0,1,1.743,7.245,4.246,4.246,0,0,0,4.226,3.732h0a4.267,4.267,0,0,0,4.227-4.787,39.858,39.858,0,0,0-2.882-10.848,39.991,39.991,0,0,0-8.6-12.756,40.109,40.109,0,0,0-23.6-11.478,4.267,4.267,0,0,0-4.787,4.227h0A4.246,4.246,0,0,0,7.21,40.1,31.688,31.688,0,0,1,30.926,55.783" transform="translate(-3.478 -14.5)" fill="none" stroke="#000" stroke-linecap="round" stroke-linejoin="round" stroke-miterlimit="10" stroke-width="1.814"/>
            <g id="Group_1205685" data-name="Group 1205685" transform="translate(1.085 34.673)">
              <path id="Path_1264432" data-name="Path 1264432" d="M7.295,52.921a14.657,14.657,0,0,1,9.924,9.96A4.235,4.235,0,0,0,21.3,65.916h0a4.262,4.262,0,0,0,4.086-5.462A23.21,23.21,0,0,0,9.753,44.765a4.261,4.261,0,0,0-5.474,4.083h0A4.233,4.233,0,0,0,7.295,52.921Z" transform="translate(-4.279 -44.587)" fill="none" stroke="#000" stroke-linecap="round" stroke-linejoin="round" stroke-miterlimit="10" stroke-width="1.814"/>
            </g>
          </g>
          <path id="Path_1264433" data-name="Path 1264433" d="M57.64,31.822H64.5a3.572,3.572,0,0,0,3.038-5.451L52.83,2.6a3.572,3.572,0,0,0-6.075,0L32.048,26.371a3.572,3.572,0,0,0,3.038,5.451H52.408" transform="translate(6.436 -0.907)" fill="none" stroke="#000" stroke-linecap="round" stroke-linejoin="round" stroke-miterlimit="10" stroke-width="1.814"/>
          <line id="Line_699" data-name="Line 699" y1="1.323" transform="translate(56.228 24.127)" fill="none" stroke="#000" stroke-linecap="round" stroke-linejoin="round" stroke-miterlimit="10" stroke-width="1.814"/>
          <line id="Line_700" data-name="Line 700" y1="9.771" transform="translate(56.228 8.803)" fill="none" stroke="#000" stroke-linecap="round" stroke-linejoin="round" stroke-miterlimit="10" stroke-width="1.814"/>
        </g>
      </g>
    </g>
  </g>
</svg>
