<svg xmlns="http://www.w3.org/2000/svg" xmlns:xlink="http://www.w3.org/1999/xlink" width="90" height="90" viewBox="0 0 90 90">
  <defs>
    <clipPath id="clip-path">
      <rect id="Rectangle_411081" data-name="Rectangle 411081" width="90" height="90" transform="translate(799.781 1954)" fill="#e8bad8" opacity="0.41"/>
    </clipPath>
    <clipPath id="clip-path-2">
      <rect id="Rectangle_411881" data-name="Rectangle 411881" width="65" height="72" transform="translate(8779 -7429)" fill="#fff" stroke="#707070" stroke-width="1" opacity="0"/>
    </clipPath>
  </defs>
  <g id="Group_1206236" data-name="Group 1206236" transform="translate(-8766.075 7437.916)">
    <g id="Group_1206103" data-name="Group 1206103" transform="translate(8900.01 797.471)">
      <g id="Group_1204193" data-name="Group 1204193">
        <g id="Group_1204164" data-name="Group 1204164" transform="translate(-165.551 -13480.431)">
          <g id="Group_1204078" data-name="Group 1204078" transform="translate(-7 133)">
            <g id="Group_1204075" data-name="Group 1204075" transform="translate(6862.502 15555.043)">
              <g id="Group_1204027" data-name="Group 1204027">
                <g id="Mask_Group_1099381" data-name="Mask Group 1099381" transform="translate(-7623.667 -12397)" clip-path="url(#clip-path)">
                  <g id="Group_1204014" data-name="Group 1204014" transform="translate(799.781 1958.909)">
                    <g id="Group_1204000" data-name="Group 1204000">
                      <ellipse id="Ellipse_12722" data-name="Ellipse 12722" cx="22.428" cy="22.428" rx="22.428" ry="22.428" transform="translate(44.238 34.661)" fill="#ffc94a"/>
                      <ellipse id="Ellipse_12723" data-name="Ellipse 12723" cx="16.311" cy="16.311" rx="16.311" ry="16.311" fill="#ffc94a"/>
                    </g>
                  </g>
                </g>
              </g>
            </g>
          </g>
        </g>
      </g>
    </g>
    <g id="Mask_Group_1099666" data-name="Mask Group 1099666" clip-path="url(#clip-path-2)">
      <g id="monitoreo-de-seguridad" transform="translate(8777.901 -7426.599)">
        <g id="Group_1206234" data-name="Group 1206234">
          <g id="Group_1206230" data-name="Group 1206230">
            <circle id="Ellipse_13005" data-name="Ellipse 13005" cx="2.254" cy="2.254" r="2.254" transform="translate(58.71 38.212)" fill="#c6ea94"/>
            <circle id="Ellipse_13006" data-name="Ellipse 13006" cx="2.254" cy="2.254" r="2.254" transform="translate(60.668 22.611)" fill="#c6ea94"/>
            <circle id="Ellipse_13007" data-name="Ellipse 13007" cx="2.254" cy="2.254" r="2.254" transform="translate(60.668 53.525)" fill="#c6ea94"/>
            <circle id="Ellipse_13008" data-name="Ellipse 13008" cx="2.254" cy="2.254" r="2.254" transform="translate(3.891 38.212)" fill="#c6ea94"/>
            <circle id="Ellipse_13009" data-name="Ellipse 13009" cx="2.254" cy="2.254" r="2.254" transform="translate(2.287 53.813)" fill="#c6ea94"/>
            <circle id="Ellipse_13010" data-name="Ellipse 13010" cx="2.254" cy="2.254" r="2.254" transform="translate(2.021 22.766)" fill="#c6ea94"/>
          </g>
          <g id="Group_1206231" data-name="Group 1206231">
            <path id="Path_1265244" data-name="Path 1265244" d="M14.736,26.562a.659.659,0,0,1,.593-.655,27.959,27.959,0,0,0,13.109-5.288H39.789A27.973,27.973,0,0,0,52.9,25.908a.657.657,0,0,1,.591.654c0,3.009,0,16.331,0,16.331,0,10.925-11.088,20.1-19.377,22.327C25.827,63,14.736,53.819,14.736,42.894Z" fill="#4fc0e8" fill-rule="evenodd"/>
            <path id="Path_1265245" data-name="Path 1265245" d="M34.114,62.318C41.965,59.861,50.7,51.5,50.7,42.894V28.4a31.081,31.081,0,0,1-11.786-5H29.312a31.11,31.11,0,0,1-11.789,5V42.894C17.523,51.493,26.262,59.861,34.114,62.318Z" fill="#66d4f1" fill-rule="evenodd"/>
          </g>
          <g id="Group_1206232" data-name="Group 1206232">
            <path id="Path_1265246" data-name="Path 1265246" d="M26.7,40.827a.659.659,0,0,1,.659-.659h13.51a.659.659,0,0,1,.659.659v5.657a7.414,7.414,0,0,1-14.828,0Z" fill="#fdcd56" fill-rule="evenodd"/>
            <path id="Path_1265247" data-name="Path 1265247" d="M34.114,44.186a1.468,1.468,0,0,1,.813,2.69v2.19a.813.813,0,1,1-1.626,0v-2.19a1.468,1.468,0,0,1,.813-2.69Z" fill="#f5b945" fill-rule="evenodd"/>
          </g>
          <g id="Group_1206233" data-name="Group 1206233">
            <path id="Path_1265248" data-name="Path 1265248" d="M12.248,14.881a.659.659,0,0,1,0-.869c14.018-15.933,28.436-16.16,42.615,0a.659.659,0,0,1,0,.868c-14.179,16.16-28.6,15.934-42.615,0Z" fill="#a4d4ff" fill-rule="evenodd"/>
            <circle id="Ellipse_13011" data-name="Ellipse 13011" cx="8.154" cy="8.154" r="8.154" transform="translate(25.4 6.292)" fill="#f4f6f8"/>
          </g>
        </g>
        <path id="Path_1265249" data-name="Path 1265249" d="M7.315,25.942a3.176,3.176,0,1,1,0-1.845h3.1a.922.922,0,0,1,.922.922v4.161h2.472V25.963a.922.922,0,0,1,.849-.919,23.155,23.155,0,0,0,6.095-1.353,46.206,46.206,0,0,1-9.588-8.642.922.922,0,0,1,0-1.206C18.519,5.338,26.01,1.085,33.488,1.054S48.5,5.214,55.938,13.844a.923.923,0,0,1,0,1.2,46.721,46.721,0,0,1-9.166,8.378,23.441,23.441,0,0,0,6.792,1.618.922.922,0,0,1,.849.919v3.218h2.321V25.02a.922.922,0,0,1,.922-.922H59.84a3.176,3.176,0,1,1,.094,1.845H58.579V30.1a.922.922,0,0,1-.922.922H54.413v8.518h3.511a3.176,3.176,0,1,1,0,1.845H54.413v1.505a18.494,18.494,0,0,1-1.5,7.168H56.6a.922.922,0,0,1,.922.922v4.161H59.81a3.176,3.176,0,1,1,.176,1.845H56.6a.922.922,0,0,1-.922-.922V51.906H52.041A30.761,30.761,0,0,1,34.352,66.111a.921.921,0,0,1-.478,0A30.768,30.768,0,0,1,16.187,51.906H11.43v4.161a.922.922,0,0,1-.922.922H7.581a3.176,3.176,0,1,1,0-1.845H9.586V50.984a.922.922,0,0,1,.922-.922h4.8a18.491,18.491,0,0,1-1.5-7.168V41.388H9.184a3.176,3.176,0,1,1,0-1.845h4.63V31.026H10.419A.922.922,0,0,1,9.5,30.1V25.942ZM5.606,25.02a1.332,1.332,0,1,0-1.332,1.332A1.332,1.332,0,0,0,5.606,25.02Zm17.149-.134a25.841,25.841,0,0,1-7.1,1.913V42.894a17.122,17.122,0,0,0,1.914,7.677,28.716,28.716,0,0,0,16.54,13.693,28.709,28.709,0,0,0,16.54-13.693,17.126,17.126,0,0,0,1.914-7.677V26.8a26.109,26.109,0,0,1-7.711-2.182q-.514.294-1.028.561A27.921,27.921,0,0,0,50.869,27.5a.922.922,0,0,1,.757.907V42.894a16.919,16.919,0,0,1-2.551,8.56A27.871,27.871,0,0,1,34.389,63.2a.923.923,0,0,1-.551,0A27.874,27.874,0,0,1,19.153,51.453a16.918,16.918,0,0,1-2.552-8.56V28.4a.922.922,0,0,1,.757-.907,27.676,27.676,0,0,0,6.471-2.053q-.537-.264-1.073-.558ZM41.7,26.169a21.226,21.226,0,0,1-8.215,1.668,21.087,21.087,0,0,1-7.432-1.422,30.487,30.487,0,0,1-7.611,2.748v13.73a15.077,15.077,0,0,0,2.294,7.62A25.986,25.986,0,0,0,34.114,61.349,25.983,25.983,0,0,0,47.488,50.514a15.078,15.078,0,0,0,2.294-7.62V29.163A30.688,30.688,0,0,1,41.7,26.169Zm-35.83,29.9A1.332,1.332,0,1,0,4.541,57.4,1.332,1.332,0,0,0,5.872,56.067Zm1.6-15.6A1.332,1.332,0,1,0,6.144,41.8,1.332,1.332,0,0,0,7.476,40.466Zm32.959-1.22h1.093a.922.922,0,0,1,.922.922v6.316a8.336,8.336,0,0,1-16.673,0V40.168a.922.922,0,0,1,.922-.922h1.093v-1.9A6.317,6.317,0,0,1,38.58,32.874h0a6.307,6.307,0,0,1,1.854,4.466Zm-10.8,0h.51v-1.9a3.967,3.967,0,0,1,7.933,0v1.9h.51v-1.9a4.477,4.477,0,0,0-8.954,0Zm2.355,0h4.244v-1.9a2.117,2.117,0,0,0-3.618-1.5h0a2.111,2.111,0,0,0-.625,1.5Zm-4.37,1.845v5.394a6.492,6.492,0,0,0,12.983,0V41.09Zm6.492,2.174A2.391,2.391,0,0,1,35.849,47.3v1.768a1.735,1.735,0,1,1-3.471,0V47.3a2.39,2.39,0,0,1,1.735-4.034Zm0,3.177a.922.922,0,0,1,.3-.332.545.545,0,1,0-.6,0,.921.921,0,0,1,.3.332ZM62.922,23.533a1.332,1.332,0,1,0,1.332,1.332A1.332,1.332,0,0,0,62.922,23.533Zm-1.958,15.6A1.332,1.332,0,1,0,62.3,40.466,1.332,1.332,0,0,0,60.964,39.134Zm1.958,15.313a1.332,1.332,0,1,0,1.332,1.332A1.332,1.332,0,0,0,62.922,54.448Zm-49.828-40c6.741,7.605,13.545,11.519,20.4,11.547s13.7-3.832,20.52-11.547Q43.787,2.874,33.5,2.9c-6.856.028-13.66,3.942-20.4,11.547ZM33.554,5.37a9.076,9.076,0,1,1-9.076,9.076A9.08,9.08,0,0,1,33.554,5.37Zm0,1.845a7.232,7.232,0,1,0,7.232,7.232,7.235,7.235,0,0,0-7.232-7.232Z" fill-rule="evenodd"/>
      </g>
    </g>
  </g>
</svg>
