<svg xmlns="http://www.w3.org/2000/svg" xmlns:xlink="http://www.w3.org/1999/xlink" width="91.233" height="91.233" viewBox="0 0 91.233 91.233">
  <defs>
    <clipPath id="clip-path">
      <rect id="Rectangle_411081" data-name="Rectangle 411081" width="91.233" height="91.233" transform="translate(0 0)" fill="#e8bad8" opacity="0.41"/>
    </clipPath>
    <clipPath id="clip-path-2">
      <rect id="Rectangle_411881" data-name="Rectangle 411881" width="65.891" height="72.986" fill="#fff" stroke="#707070" stroke-width="1" opacity="0"/>
    </clipPath>
  </defs>
  <g id="Group_1206148" data-name="Group 1206148" transform="translate(0 0)">
    <g id="Group_1206103" data-name="Group 1206103" transform="translate(0 0)">
      <g id="Group_1204193" data-name="Group 1204193" transform="translate(0 0)">
        <g id="Group_1204164" data-name="Group 1204164">
          <g id="Group_1204078" data-name="Group 1204078" transform="translate(0 0)">
            <g id="Group_1204075" data-name="Group 1204075">
              <g id="Group_1204027" data-name="Group 1204027">
                <g id="Mask_Group_1099381" data-name="Mask Group 1099381" clip-path="url(#clip-path)">
                  <g id="Group_1204014" data-name="Group 1204014" transform="translate(0 4.976)">
                    <g id="Group_1204000" data-name="Group 1204000">
                      <ellipse id="Ellipse_12722" data-name="Ellipse 12722" cx="22.735" cy="22.735" rx="22.735" ry="22.735" transform="translate(44.844 35.136)" fill="#ffc94a"/>
                      <ellipse id="Ellipse_12723" data-name="Ellipse 12723" cx="16.535" cy="16.535" rx="16.535" ry="16.535" fill="#ffc94a"/>
                    </g>
                  </g>
                </g>
              </g>
            </g>
          </g>
        </g>
      </g>
    </g>
    <g id="Mask_Group_1099657" data-name="Mask Group 1099657" transform="translate(13.102 9.039)" clip-path="url(#clip-path-2)">
      <g id="acceso-a-internet" transform="translate(0 1.471)">
        <g id="Group_1206151" data-name="Group 1206151" transform="translate(0 4.154)">
          <g id="Group_1206148-2" data-name="Group 1206148">
            <circle id="Ellipse_12980" data-name="Ellipse 12980" cx="23.296" cy="23.296" r="23.296" transform="translate(0 32.945) rotate(-45)" fill="#8ac9fe"/>
            <path id="Path_1265127" data-name="Path 1265127" d="M29.347,14.625a23.3,23.3,0,0,1,0,46.6c-.47,0-.936-.016-1.4-.043a23.3,23.3,0,0,0,0-46.513c.463-.028.929-.043,1.4-.043Z" transform="translate(3.605 -4.978)" fill="#60b7ff" fill-rule="evenodd"/>
          </g>
          <g id="Group_1206149" data-name="Group 1206149" transform="translate(41.009 36.995)">
            <path id="Path_1265128" data-name="Path 1265128" d="M46.989,46.642,58.156,57.81a.641.641,0,0,1,0,.905l-3.769,3.769a.641.641,0,0,1-.905,0L42.315,51.316a.641.641,0,0,0-.905,0l-1.527,1.527a.64.64,0,0,1-1.086-.361L37.283,42.046a.356.356,0,0,1,.436-.436l10.436,1.514a.64.64,0,0,1,.361,1.086l-1.526,1.527a.641.641,0,0,0,0,.905Z" transform="translate(-37.276 -41.603)" fill="#a79ba7" fill-rule="evenodd"/>
            <path id="Path_1265129" data-name="Path 1265129" d="M46.9,46.537,58.156,57.81a.642.642,0,0,1,0,.905l-.025.025-.009-.009L46.955,47.564a.783.783,0,0,1-.085-1.011l.025-.025ZM37.363,42.6l-.081-.557a.356.356,0,0,1,.436-.436l10.436,1.514a.64.64,0,0,1,.361,1.086l-.024.024a.632.632,0,0,0-.371-.188L37.685,42.531a.4.4,0,0,0-.321.072Z" transform="translate(-37.276 -41.603)" fill="#837683" fill-rule="evenodd"/>
          </g>
          <g id="Group_1206150" data-name="Group 1206150" transform="translate(31.084 9.515)">
            <circle id="Ellipse_12981" data-name="Ellipse 12981" cx="1.849" cy="1.849" r="1.849" fill="#ffe177"/>
            <path id="Path_1265130" data-name="Path 1265130" d="M29.313,14.495a1.849,1.849,0,1,1-.307,3.672,1.849,1.849,0,0,0,0-3.647,1.858,1.858,0,0,1,.307-.026Z" transform="translate(-27.464 -14.495)" fill="#ffd064" fill-rule="evenodd"/>
          </g>
        </g>
        <path id="Path_1265131" data-name="Path 1265131" d="M57.6,58.811,46.248,47.463a1.026,1.026,0,0,1,0-1.449l1.438-1.438-8.831-1.281,1.281,8.831,1.438-1.438a1.025,1.025,0,0,1,1.448,0L54.371,62.037ZM44.313,54.877A22.127,22.127,0,0,1,34,59.954a28.564,28.564,0,0,0,4.705-4.92,1.021,1.021,0,0,0,1.43-.016L42.3,52.861ZM7.4,37.079H15a27.9,27.9,0,0,1,2.334-10.29q.3-.69.64-1.36a26.145,26.145,0,0,1-4.94-2.186A22.219,22.219,0,0,0,7.4,37.079ZM19.956,26.013A38.587,38.587,0,0,0,28.632,27.2v9.883H17.046a25.9,25.9,0,0,1,2.91-11.066ZM30.681,27.2v9.883H42.265a25.907,25.907,0,0,0-2.909-11.066A38.593,38.593,0,0,1,30.681,27.2Zm10.66-1.767a26.109,26.109,0,0,0,4.942-2.188,22.213,22.213,0,0,1,5.626,13.838H44.315A27.89,27.89,0,0,0,41.972,26.77Q41.674,26.089,41.341,25.429Zm.7,16.258L38.3,41.146a1.376,1.376,0,0,0-1.6,1.6l1.025,7.066A39.039,39.039,0,0,0,30.681,49V39.128H42.263c-.034.857-.112,1.713-.227,2.559ZM30.681,59.88A26.5,26.5,0,0,0,38.1,52.331l-.051-.356a36.99,36.99,0,0,0-7.365-.933ZM14.549,54.458A22.226,22.226,0,0,0,25.3,59.95,28.333,28.333,0,0,1,18.97,52.6a25.11,25.11,0,0,0-4.421,1.857Zm14.083-15.33H17.05A26.285,26.285,0,0,0,19.96,50.2,38.51,38.51,0,0,1,28.632,49Zm0,11.914V59.88a26.212,26.212,0,0,1-7.622-7.851,36.382,36.382,0,0,1,7.622-.988Zm-15.57,1.9A22.183,22.183,0,0,1,7.4,39.128H15a28.469,28.469,0,0,0,2.972,11.65,26.334,26.334,0,0,0-4.909,2.168Zm36.576-4.99-1.217-1.218,2.157-2.159A1.024,1.024,0,0,0,50,42.843l-5.939-.862a28.547,28.547,0,0,0,.249-2.853h7.595a22.308,22.308,0,0,1-2.268,8.828ZM60.069,58.811a1.025,1.025,0,0,1-.3.725L55.1,64.21a1.027,1.027,0,0,1-1.45,0l-7.882-7.882a24.186,24.186,0,0,1-15.436,6.09,1.108,1.108,0,0,1-.116.008c-.02,0-.041,0-.06,0-.165,0-.33.006-.5.006s-.328,0-.492-.006c-.021,0-.043,0-.065,0a.916.916,0,0,1-.107-.008,24.247,24.247,0,0,1-16.748-7.349,1.05,1.05,0,0,1-.2-.2,24.3,24.3,0,0,1-1.407-31.929q.69-.864,1.456-1.658a.816.816,0,0,1,.081-.084,24.426,24.426,0,0,1,11.783-6.741,1.024,1.024,0,0,1,.479,1.992,22.222,22.222,0,0,0-9.92,5.286,25.027,25.027,0,0,0,4.446,1.886,28.294,28.294,0,0,1,4.751-5.95,1.024,1.024,0,1,1,1.416,1.48A26.559,26.559,0,0,0,21,24.191a36.313,36.313,0,0,0,7.628,1V22.064a1.024,1.024,0,1,1,2.048,0v3.123a36.3,36.3,0,0,0,7.626-1,26.607,26.607,0,0,0-4.154-5.07,1.024,1.024,0,0,1,1.415-1.482,28.337,28.337,0,0,1,4.78,5.979,24.965,24.965,0,0,0,4.448-1.886,22.245,22.245,0,0,0-9.959-5.295,1.024,1.024,0,1,1,.475-1.992A24.426,24.426,0,0,1,47.136,21.2a1.024,1.024,0,0,1,.079.082q.757.787,1.444,1.644A24.064,24.064,0,0,1,53.979,38.1a24.338,24.338,0,0,1-2.818,11.374l8.608,8.608A1.024,1.024,0,0,1,60.069,58.811ZM29.636,15.7a.825.825,0,1,0,.825.826.826.826,0,0,0-.825-.826Zm0-2.048a2.873,2.873,0,1,0,2.874,2.874A2.877,2.877,0,0,0,29.636,13.648Zm5.83-3.934a1.024,1.024,0,0,0,1.512-1.381,9.777,9.777,0,0,0-14.682,0,1.024,1.024,0,0,0,1.512,1.381,7.732,7.732,0,0,1,11.659,0ZM32.88,12.544a4.295,4.295,0,0,0-6.487,0,1.024,1.024,0,1,1-1.512-1.381,6.339,6.339,0,0,1,9.51,0,1.024,1.024,0,1,1-1.512,1.381Zm-13.105-5.6A1.023,1.023,0,0,1,19.709,5.5a13.217,13.217,0,0,1,19.855,0,1.024,1.024,0,1,1-1.512,1.381,11.172,11.172,0,0,0-16.831,0,1.023,1.023,0,0,1-1.447.065Z" transform="translate(3.295 -1.01)" fill="#242222" fill-rule="evenodd"/>
      </g>
    </g>
  </g>
</svg>
