<svg id="Group_1205811" data-name="Group 1205811" xmlns="http://www.w3.org/2000/svg" xmlns:xlink="http://www.w3.org/1999/xlink" width="108.622" height="108.621" viewBox="0 0 108.622 108.621">
  <defs>
    <clipPath id="clip-path">
      <rect id="Rectangle_411081" data-name="Rectangle 411081" width="108.622" height="108.622" fill="#e8bad8" opacity="0.41"/>
    </clipPath>
    <clipPath id="clip-path-2">
      <rect id="Rectangle_411699" data-name="Rectangle 411699" width="78.449" height="90.518" fill="#fff" stroke="#707070" stroke-width="1" opacity="0"/>
    </clipPath>
  </defs>
  <g id="Group_1205807" data-name="Group 1205807" transform="translate(0)">
    <g id="Group_1204027" data-name="Group 1204027">
      <g id="Mask_Group_1099381" data-name="Mask Group 1099381" clip-path="url(#clip-path)">
        <g id="Group_1204014" data-name="Group 1204014" transform="translate(0 5.925)">
          <g id="Group_1204000" data-name="Group 1204000">
            <ellipse id="Ellipse_12722" data-name="Ellipse 12722" cx="27.068" cy="27.068" rx="27.068" ry="27.068" transform="translate(53.392 41.833)" fill="#ffc94a"/>
            <ellipse id="Ellipse_12723" data-name="Ellipse 12723" cx="19.686" cy="19.686" rx="19.686" ry="19.686" fill="#ffc94a"/>
          </g>
        </g>
      </g>
    </g>
  </g>
  <g id="Mask_Group_1099575" data-name="Mask Group 1099575" transform="translate(15.007 9.655)" clip-path="url(#clip-path-2)">
    <g id="exceso-de-velocidad" transform="translate(0 19.336)">
      <g id="Group_1205815" data-name="Group 1205815" transform="translate(8.412 13.82)">
        <path id="Path_1264584" data-name="Path 1264584" d="M37.785,22.475A30.821,30.821,0,0,1,68.6,53.289v3.779a1.57,1.57,0,0,1-1.569,1.565H8.539a1.567,1.567,0,0,1-1.565-1.565V53.289A30.814,30.814,0,0,1,37.785,22.475Z" transform="translate(-6.973 -22.475)" fill="#f1f1f1" fill-rule="evenodd"/>
        <path id="Path_1264585" data-name="Path 1264585" d="M36.87,26.9A25.469,25.469,0,0,1,62.339,52.371H54.651a17.783,17.783,0,0,0-35.567,0H11.4A25.471,25.471,0,0,1,36.87,26.9Z" transform="translate(-6.058 -21.559)" fill="#70da40" fill-rule="evenodd"/>
        <path id="Path_1264586" data-name="Path 1264586" d="M48.356,33.084a25.4,25.4,0,0,1,7.461,18.01H48.13a17.728,17.728,0,0,0-5.208-12.573Z" transform="translate(0.465 -20.28)" fill="#ff4646" fill-rule="evenodd"/>
        <path id="Path_1264587" data-name="Path 1264587" d="M32.5,26.9a25.407,25.407,0,0,1,18.01,7.461L45.075,39.8A17.719,17.719,0,0,0,32.5,34.592Z" transform="translate(-1.69 -21.559)" fill="#fea832" fill-rule="evenodd"/>
        <path id="Path_1264588" data-name="Path 1264588" d="M35.591,34.59A17.731,17.731,0,0,0,23.014,39.8l-5.437-5.437A25.406,25.406,0,0,1,35.589,26.9V34.59Z" transform="translate(-4.779 -21.559)" fill="#ffd400" fill-rule="evenodd"/>
        <path id="Path_1264589" data-name="Path 1264589" d="M9.089,53.289A30.814,30.814,0,0,1,38.842,22.5c-.349-.012-.7-.021-1.056-.021A30.818,30.818,0,0,0,6.973,53.289v3.779a1.567,1.567,0,0,0,1.565,1.565h2.116a1.567,1.567,0,0,1-1.565-1.565Z" transform="translate(-6.973 -22.475)" fill="#d9d9d9" fill-rule="evenodd"/>
        <path id="Path_1264590" data-name="Path 1264590" d="M36.87,26.9c.3,0,.6.008.9.017-.3.012-.6.029-.9.051ZM19.783,35.289A25.346,25.346,0,0,0,13.2,52.373H11.4a25.407,25.407,0,0,1,7.461-18.01Z" transform="translate(-6.058 -21.559)" fill="#65c43a" fill-rule="evenodd"/>
        <path id="Path_1264591" data-name="Path 1264591" d="M35.591,26.97A25.4,25.4,0,0,0,18.5,35.289l-.926-.926A25.406,25.406,0,0,1,35.591,26.9Z" transform="translate(-4.779 -21.559)" fill="#e6bf00" fill-rule="evenodd"/>
        <path id="Path_1264592" data-name="Path 1264592" d="M51.025,41.524l-8.861,3.627L33.3,48.773,32.62,44.4l-.686-4.376,9.543.749Z" transform="translate(-1.808 -18.844)" fill="#0cf" fill-rule="evenodd"/>
        <path id="Path_1264593" data-name="Path 1264593" d="M33.4,49.812a5.259,5.259,0,1,0-5.259-5.259A5.269,5.269,0,0,0,33.4,49.812Z" transform="translate(-2.592 -18.995)" fill="#0593fc" fill-rule="evenodd"/>
        <path id="Path_1264594" data-name="Path 1264594" d="M29.432,44.553a5.263,5.263,0,0,1,4.615-5.222,5.6,5.6,0,0,0-.644-.038,5.257,5.257,0,1,0,.644,10.477,5.255,5.255,0,0,1-4.615-5.216Z" transform="translate(-2.592 -18.995)" fill="#0584e3" fill-rule="evenodd"/>
      </g>
      <path id="Path_1264595" data-name="Path 1264595" d="M39.229,23.1A33.069,33.069,0,0,0,6.195,56.128v3.9A2.849,2.849,0,0,0,9.04,62.871H69.412a2.849,2.849,0,0,0,2.846-2.846v-3.9A33.067,33.067,0,0,0,39.229,23.1ZM69.808,60.024a.4.4,0,0,1-.4.4H9.042a.4.4,0,0,1-.4-.4v-3.9a30.582,30.582,0,0,1,61.163,0v3.9ZM58.686,36.671a1.139,1.139,0,0,0-.149-.124,27.464,27.464,0,0,0-38.63.011,1.189,1.189,0,0,0-.135.115,1.063,1.063,0,0,0-.115.136A27.426,27.426,0,0,0,11.712,56.13a1.225,1.225,0,0,0,1.224,1.224h7.931a1.224,1.224,0,0,0,1.224-1.224A17.136,17.136,0,0,1,51.3,43.971c.014.015.028.032.041.046l.034.031A17.178,17.178,0,0,1,53.119,46.1l-9.992-.785a6.652,6.652,0,1,0,1.46,9.317l4.956-2.024,5.777-2.366a17.058,17.058,0,0,1,1.039,5.884,1.225,1.225,0,0,0,1.224,1.224h7.931a1.224,1.224,0,0,0,1.224-1.224,27.429,27.429,0,0,0-7.931-19.309.928.928,0,0,0-.121-.15Zm-6.5,4.772a19.527,19.527,0,0,0-11.728-4.854v-5.5a24.957,24.957,0,0,1,15.6,6.477Zm-25.9.008L22.4,37.567A24.971,24.971,0,0,1,38,31.092v5.495A19.5,19.5,0,0,0,26.28,41.45ZM19.682,54.9h-5.49a24.972,24.972,0,0,1,6.476-15.6l3.88,3.883A19.494,19.494,0,0,0,19.682,54.9Zm19.546,0a4.2,4.2,0,1,1,4.2-4.2A4.208,4.208,0,0,1,39.229,54.9Zm9.389-4.56-2.784,1.137a6.824,6.824,0,0,0,.047-.777,6.622,6.622,0,0,0-.6-2.76L53,48.55ZM58.773,54.9a19.4,19.4,0,0,0-1.181-5.588l1.1-.449a1.224,1.224,0,0,0-.368-2.354l-2.128-.167a19.588,19.588,0,0,0-2.276-3.169L57.791,39.3a24.978,24.978,0,0,1,6.474,15.6H58.773ZM38,17.878v-5.63a1.224,1.224,0,0,1,2.449,0v5.63a1.224,1.224,0,0,1-2.449,0Zm9.94.987L49.4,13.427a1.225,1.225,0,0,1,2.367.633L50.312,19.5a1.227,1.227,0,0,1-1.183.909,1.261,1.261,0,0,1-.317-.041,1.226,1.226,0,0,1-.867-1.5Zm9.349,3.526,2.815-4.877a1.225,1.225,0,0,1,2.122,1.224l-2.815,4.877a1.225,1.225,0,0,1-2.122-1.224Zm8.118,7.556a1.224,1.224,0,0,1,0-1.732l3.979-3.979a1.224,1.224,0,0,1,1.732,1.732l-3.979,3.979a1.224,1.224,0,0,1-1.732,0Zm12.429,5.3-4.873,2.815a1.225,1.225,0,0,1-1.226-2.122l4.873-2.815a1.225,1.225,0,0,1,1.226,2.122ZM26.688,14.06a1.225,1.225,0,0,1,2.367-.633l1.456,5.438a1.225,1.225,0,0,1-.867,1.5,1.2,1.2,0,0,1-.317.041,1.227,1.227,0,0,1-1.183-.909ZM16.224,18.738a1.225,1.225,0,0,1,2.122-1.224l2.815,4.877a1.225,1.225,0,1,1-2.122,1.224Zm-8.892,7.23a1.224,1.224,0,1,1,1.732-1.732l3.979,3.979a1.224,1.224,0,0,1-1.732,1.732ZM6.1,38.228a1.229,1.229,0,0,1-.611-.164L.615,35.249a1.225,1.225,0,0,1,1.226-2.121l4.873,2.815A1.224,1.224,0,0,1,6.1,38.228Z" transform="translate(-0.003 -11.024)"/>
    </g>
  </g>
</svg>
